<svg width="305" viewBox="0 0 305 252" fill="none" xmlns="http://www.w3.org/2000/svg">
<path fill-rule="evenodd" clip-rule="evenodd" d="M29.5761 223.402C29.0725 223.291 28.6818 223.204 28.2678 223.113C28.4936 222.537 28.6621 222.105 28.8502 221.624H26.9541C28.844 217.928 27.3215 214.716 25.9459 211.501C24.8294 208.892 23.6412 206.313 22.4861 203.724C21.5129 204.179 20.8776 204.477 20.2413 204.775C21.1912 202.981 21.383 201.388 19.9931 199.882C18.9222 198.723 18.9446 196.524 17.156 196.437C16.8074 195.647 16.69 194.864 16.2393 194.447C13.6746 192.07 11.0123 189.803 8.41984 187.458C5.80589 185.092 2.70983 185.971 0 187.52V190.474C0.184598 190.829 0.321703 191.221 0.560964 191.534C1.59597 192.887 1.02605 195.158 3.45809 195.865C4.3309 196.117 4.54865 198.263 5.31662 199.368C6.91259 201.663 8.88223 203.714 10.316 206.099C11.8985 208.731 13.4631 211.174 16.664 211.932C16.7384 211.95 16.7689 212.156 16.8038 212.237C15.9884 212.455 15.1702 212.672 14.2096 212.929C15.2554 214.926 16.1318 216.682 17.0798 218.395C18.4823 220.93 19.3775 223.862 22.4888 225.049C23.047 225.263 23.341 226.181 23.7648 226.785C24.8832 226.106 25.6502 226.211 26.135 227.783C26.8976 230.256 27.8349 232.679 28.7893 235.087C29.068 235.789 29.6567 236.366 30.1039 237C30.4023 236.836 30.7007 236.672 31 236.509C29.551 232.87 28.1011 229.231 26.7937 225.948C27.8403 224.991 28.6379 224.261 29.5761 223.402Z" fill="black"/>
<path fill-rule="evenodd" clip-rule="evenodd" d="M167.652 22.0802C167.797 22.1598 167.942 22.2404 168.087 22.3209C167.294 23.2005 166.647 24.3216 165.675 24.9065C163.896 25.9764 162.377 24.8882 160.842 24.0059C163.229 23.3314 165.44 22.7053 167.652 22.0802ZM130.97 21.2318C132.461 20.5591 134.183 20.3989 135.801 20.0054C135.944 20.2479 136.087 20.4886 136.229 20.7302C129.91 25.0959 128.058 31.9767 125.733 38.6214C130.741 35.6185 134.021 29.9733 140.592 28.7972C141.164 30.6194 142.134 32.2971 142.136 33.9756C142.14 39.3563 141.956 44.7517 141.528 50.1159C140.998 56.7679 136.953 60.3932 130.608 61.7596C130.2 61.8475 129.829 62.101 129.44 62.2776C129.457 62.436 129.473 62.5934 129.489 62.7517C132.928 62.9751 136.366 63.1975 139.709 63.4144V76.463C143.234 74.1007 146.745 71.7477 150.586 69.1731C150.834 74.1859 151.073 79.0321 151.318 84C159.157 82.6418 159.766 75.0773 163.185 69.5502C163.783 72.7306 164.353 75.7656 164.923 78.8005C165.046 78.817 165.169 78.8335 165.291 78.849C166.236 76.0822 167.18 73.3145 168.163 70.4306C170.788 72.7892 173.307 75.0544 175.703 77.2089C175.307 74.7835 174.838 71.9106 174.3 68.6175C177.457 70.6613 180.303 72.5046 183.15 74.3469C181.499 71.8154 179.546 69.6133 178.028 67.1467C177.152 65.7244 176.496 63.8528 176.569 62.2191C176.83 56.3249 177.464 50.4481 177.898 44.5604C177.957 43.766 177.779 42.9184 177.543 42.1451C176.879 39.9558 176.127 37.7931 175.409 35.6194C176.483 36.6518 176.919 37.9624 177.693 39.0287C179.141 41.0221 180.604 43.0722 182.405 44.7251C183.877 46.0769 185.89 45.6898 186.989 44.3197C188.193 42.8187 188.461 41.2472 187.022 39.7105C185.951 38.5646 184.949 37.3291 183.748 36.3342C178.658 32.1149 175.542 26.7699 174.236 20.3284C174.038 19.3555 173.719 18.4073 173.443 17.4518C173.415 17.3557 173.3 17.2843 173.144 17.1105C173.008 17.5964 172.896 17.9973 172.677 18.7844C171.444 16.4341 170.34 14.3766 167.068 14.6805C168.072 11.3646 168.928 8.38636 169.877 5.43654C170.798 2.57641 169.98 1.43144 166.936 1.51473C166.44 1.52845 165.942 1.60533 165.453 1.69686C160.095 2.69996 154.705 3.33423 149.299 2.23502C146.495 1.66483 143.761 0.75599 140.995 0C140.894 0.0805413 140.794 0.161083 140.692 0.241624C142.364 1.95679 144.036 3.67287 146.062 5.7523C138.604 6.35727 131.482 6.93479 124.183 7.52695C127.732 10.5967 132.489 10.6754 136.804 12.5535C125.328 12.7722 119.611 21.1091 113 29.1221C116.112 27.9844 118.841 27.1616 121.417 26.0011C124.659 24.5404 127.728 22.6953 130.97 21.2318Z" fill="black"/>
<path fill-rule="evenodd" clip-rule="evenodd" d="M42.3069 140.339C47.5508 142.943 53.0747 143.282 58.6632 142.833C65.769 142.261 72.1057 139.668 77.1869 134.418C85.2236 126.113 83.5945 110.666 76.8287 102.715C74.874 100.419 72.1121 98.712 69.4856 97.1314C65.5063 94.7373 61.8033 92.2863 60.8524 87.2451C60.2242 83.9136 62.0061 81.9317 65.3108 82.5355C67.7646 82.9836 69.3456 84.4954 69.9592 86.9464C70.182 87.837 70.2783 88.7606 70.4865 89.9902C73.1139 88.4179 75.5395 86.9739 77.956 85.5161C80.3507 84.0712 82.7372 82.6125 85 81.2363C82.8408 75.6866 79.6761 71.2372 75.0895 67.848C70.922 64.7685 66.3654 62.8151 61.1306 63.0139C52.662 63.3355 45.077 69.0731 42.176 77.1938C39.0531 85.9376 41.075 94.6264 47.8172 100.525C50.7482 103.091 53.9084 105.398 57.0304 107.732C61.2524 110.89 62.4779 115.376 62.5543 120.314C62.5752 121.685 62.1743 123.159 61.6079 124.423C60.4942 126.911 56.9749 127.82 54.4666 126.453C52.4392 125.348 51.811 122.144 53.2465 119.837C53.8311 118.898 54.6011 118.075 55.3457 117.123C50.6582 110.993 45.9771 104.871 41.2332 98.6671C35.7911 102.749 31.5781 107.385 29.6044 113.815C26.6897 123.315 34.8701 136.647 42.3069 140.339Z" fill="black"/>
<path fill-rule="evenodd" clip-rule="evenodd" d="M276.117 141.928C277.44 145.714 278.874 149.593 280.146 153.523C281.42 157.459 282.637 161.42 283.686 165.418C284.735 169.419 285.721 173.45 286.409 177.52C287.081 181.498 287.343 185.541 287.785 189.555C287.57 189.585 287.354 189.617 287.138 189.649C286.912 188.995 286.68 188.344 286.462 187.689C281.711 173.41 275.499 159.75 268.13 146.578C267.623 145.671 267.233 144.865 265.853 145.296C262.241 146.424 258.595 147.445 254.786 148.56C255.728 167.852 256.501 186.941 254 206.22C258.451 206.941 262.857 207.655 267.397 208.39C267.767 199.479 268.122 190.943 268.476 182.408C268.68 182.373 268.884 182.338 269.089 182.303C273.59 191.726 278.077 201.156 282.621 210.559C282.981 211.303 283.613 212.215 284.329 212.458C289.436 214.182 294.598 215.752 299.744 217.369C300.387 217.571 301.033 217.756 301.844 218C302.724 189.42 299.844 161.492 294.045 134C287.96 136.691 282.062 139.299 276.117 141.928Z" fill="black"/>
<path fill-rule="evenodd" clip-rule="evenodd" d="M169.065 98.9077C164.922 110.274 163.794 121.973 166.385 133.908C169.136 146.578 177.291 155.071 189.168 156.701C197.172 157.8 204.679 155.94 210.586 149.977C214.971 145.551 217.625 140.179 217.961 133.857C218.261 128.196 216.822 122.96 213.85 117.907C210.05 120.001 206.488 122.15 202.761 123.958C199.708 125.439 197.881 126.779 198.878 130.933C200.032 135.738 196.203 139.127 191.331 138.495C188.735 138.157 187.114 136.375 185.927 134.263C182.291 127.791 181.609 120.774 182.615 113.575C182.906 111.496 183.724 109.411 184.685 107.524C185.763 105.408 187.968 104.663 190.187 104.814C192.476 104.971 193.588 106.732 194.14 108.828C194.322 109.517 194.472 110.214 194.729 111.299C199.607 107.255 204.258 103.422 208.867 99.5376C209.234 99.2277 209.485 98.5673 209.489 98.0679C209.526 92.8374 205.018 86.4054 199.981 84.4159C188.45 79.8606 173.508 86.7218 169.065 98.9077Z" fill="black"/>
<path fill-rule="evenodd" clip-rule="evenodd" d="M111.146 95.1017C111.363 93.2264 113.234 92.6111 115.346 93.5264C118.628 94.9495 121.079 99.309 120.861 103.335C120.505 109.915 115.896 113.717 109.357 112.504C109.95 106.634 110.48 100.86 111.146 95.1017ZM104.503 154C105.843 145.1 107.126 136.576 108.407 128.07C111.251 128.529 113.804 129.17 116.385 129.309C121.244 129.57 125.924 128.773 129.432 124.979C137.25 116.523 139.53 106.455 137.036 95.4171C135.59 89.0173 130.486 85.6816 124.598 84.1254C115.745 81.787 106.74 80.0275 97.7003 78C93.6957 102.503 90.5744 127.062 84 151.21C90.8797 152.147 97.6313 153.066 104.503 154Z" fill="black"/>
<path fill-rule="evenodd" clip-rule="evenodd" d="M61.5824 211.051C65.8033 205.864 66.5449 199.551 66.9339 193.237C67.1717 189.371 66.7043 185.461 66.5385 181.201C61.6499 183.483 57.4463 185.543 53.1581 187.401C51.4298 188.149 50.9342 189.11 50.7593 191.042C50.4732 194.198 49.7954 197.412 48.6767 200.366C47.7866 202.715 45.5136 202.761 43.9684 200.722C43.082 199.553 42.3732 198.153 41.935 196.744C39.9462 190.351 40.0564 183.809 41.3629 177.352C41.9897 174.255 43.4291 171.313 44.6563 168.368C44.9004 167.784 45.9991 167.049 46.4474 167.194C47.0805 167.399 47.7429 168.293 47.9187 169.012C48.356 170.801 48.5254 172.657 48.8325 174.688C54.4353 172.227 59.9325 169.812 65.5127 167.361C64.9323 164.76 64.4695 162.439 63.8928 160.148C62.8807 156.13 61.1552 152.449 58.5113 149.262C54.203 144.068 48.4681 142.477 42.5263 145.581C39.6847 147.066 37.0537 149.516 35.1104 152.128C24.0841 166.955 21.6963 183.562 26.0465 201.346C27.2919 206.44 28.9828 211.406 32.032 215.743C36.0661 221.481 41.6981 223.317 48.284 221.066C53.7758 219.189 57.9592 215.504 61.5824 211.051Z" fill="black"/>
<path fill-rule="evenodd" clip-rule="evenodd" d="M225.409 106.645C228.799 110.219 232.509 113.501 237.401 114.917C239.062 115.398 239.549 116.103 239.672 117.592C240.107 122.905 240.607 128.214 241.101 133.522C241.546 138.314 242.017 143.104 242.487 147.996C249.312 148.089 255.561 146.554 261.687 144.482C261.687 143.841 261.726 143.418 261.68 143.004C260.732 134.5 259.801 125.993 258.801 117.494C258.509 115.017 258.526 112.856 260.422 110.724C261.974 108.978 262.968 106.663 263.857 104.463C269.298 90.9868 268.807 77.2279 265.672 63C261.213 65.3824 257.01 67.6287 252.807 69.874C248.761 72.0364 248.917 72.0165 249.486 76.5207C250.147 81.7339 250.715 86.9761 250.911 92.2209C251.066 96.3705 248.593 98.3967 244.397 98.744C239.949 99.1111 236.831 97.1743 234.331 93.86C230.793 89.1664 228.675 83.8187 226.833 78.3411C226.644 77.78 226.395 77.2397 226.088 76.4756C220.56 78.7372 215.241 80.9139 210 83.0582C210.079 83.6771 210.05 83.908 210.139 84.0803C214.358 92.1658 219.06 99.9483 225.409 106.645Z" fill="black"/>
<path fill-rule="evenodd" clip-rule="evenodd" d="M104.524 175.85C105.09 169.45 105.6 162.977 109 157.018C103.744 156.191 98.6438 155.389 93.3117 154.55C92.7839 162.577 92.269 170.394 91.7476 178.322C88.9418 178.132 86.4824 177.964 83.7921 177.783C84.4473 169.394 85.0805 161.281 85.7237 153.038C80.7087 152.007 75.9292 151.026 70.9371 150C72.7212 171.299 73.9454 192.164 69 213C74.2285 211.786 79.2435 210.622 84.5985 209.379V189.812H90.582C90.2347 196.034 89.8948 202.132 89.542 208.452C94.1153 207.725 98.3176 207.058 102.578 206.381C102.578 205.201 102.517 204.145 102.588 203.098C103.206 194.013 103.722 184.919 104.524 175.85Z" fill="black"/>
<path fill-rule="evenodd" clip-rule="evenodd" d="M235 218C219.454 206.451 205.322 193.613 194.648 177.38C201.718 170.359 208.746 163.68 214.376 155C213.025 155.509 212.312 155.881 211.554 156.046C208.021 156.816 204.503 157.752 200.924 158.158C199.385 158.332 198.459 158.688 197.53 159.851C194.11 164.131 190.573 168.318 187.108 172.564C186.774 172.974 186.631 173.535 186.399 174.026C186.063 173.84 185.727 173.654 185.39 173.469V158.697H172C174.456 165.943 173.302 173.232 173.295 180.405C173.288 187.61 172.547 194.816 172.125 202.071H186.088V186.481C196.959 205.148 213.111 215.878 235 218Z" fill="black"/>
<path fill-rule="evenodd" clip-rule="evenodd" d="M141.11 90.7033C140.749 101.919 140.513 113.018 140.002 124.107C139.487 135.248 138.697 146.378 138 158H158.146C159.427 134.064 160.716 109.999 162 86C158.478 87.1602 155.169 88.5396 151.718 89.3072C148.183 90.0933 144.509 90.2803 141.11 90.7033Z" fill="black"/>
<path fill-rule="evenodd" clip-rule="evenodd" d="M236.477 162.853C239.882 161.753 243.227 160.453 246.561 159.141C247.227 158.877 248.11 158.301 248.256 157.708C248.946 154.904 249.414 152.044 250 149C245.042 150.198 240.493 151.332 235.927 152.391C231.306 153.462 226.668 154.459 222 155.497C222.363 171.292 222.722 186.876 223.08 202.413C232.286 203.458 241.41 203.141 249.755 208C249.755 203.461 249.621 199.121 249.811 194.794C249.908 192.579 249 192.002 247.086 191.832C242.965 191.469 238.856 190.951 234.733 190.495V174.438C238.086 177.001 241.195 179.378 244.805 182.136V167.117C241.626 168.7 238.385 170.312 234.978 172.008C234.978 169.449 235.036 167.174 234.956 164.905C234.913 163.704 235.297 163.235 236.477 162.853Z" fill="black"/>
<path fill-rule="evenodd" clip-rule="evenodd" d="M166.967 180.551C164.025 181.867 161.115 183.263 158.123 184.462C156.751 185.012 156.34 185.699 156.448 187.164C156.659 190.023 155.637 191.433 153.325 192.059C151.16 192.646 149.125 191.856 148.01 189.476C147.056 187.439 146.306 185.21 146.022 182.996C145.741 180.8 145.93 178.477 146.336 176.287C146.642 174.629 148.075 173.775 149.887 173.72C151.696 173.665 152.69 174.651 153.269 176.173C153.612 177.075 153.837 178.022 154.225 179.316C157.486 175.397 160.537 171.732 163.623 168.026C161.304 164.649 158 161.851 154.487 160.799C152.541 160.217 150.352 159.828 148.366 160.076C140.73 161.032 135.94 165.59 134.017 172.76C131.594 181.793 133.564 190.169 139.252 197.584C143.369 202.951 150.098 205.086 156.176 203.475C167.057 200.589 169.781 188.677 166.967 180.551Z" fill="black"/>
<mask id="mask0" style="mask-type:alpha" maskUnits="userSpaceOnUse" x="276" y="54" width="29" height="72">
<path fill-rule="evenodd" clip-rule="evenodd" d="M276 54H305V126H276V54Z" fill="white"/>
</mask>
<g mask="url(#mask0)">
<path fill-rule="evenodd" clip-rule="evenodd" d="M301.475 112.535C302.679 111.425 302.599 111.462 301.9 109.999C299.799 105.598 297.736 101.179 295.723 96.7382C295.151 95.4747 294.802 94.1108 294.321 92.705C293.098 93.3537 292.039 93.9147 290.98 94.4767C290.875 94.3955 290.771 94.3134 290.665 94.2322C291.055 93.5078 291.37 92.7297 291.848 92.0683C293.25 90.1288 293.44 88.1245 292.694 85.8502C291.725 82.8926 290.916 79.8776 290.167 76.8561C289.662 74.8217 288.57 73.3311 286.965 71.9982C286.052 71.2411 285.58 69.9584 284.852 68.8217C284.396 68.8436 283.471 68.8883 282.384 68.9394C281.893 64.7037 281.466 60.5456 280.888 56.4084C280.77 55.5655 280.085 54.801 279.662 54C279.278 54.1177 278.895 54.2354 278.511 54.353C278.876 56.86 279.224 59.3687 279.61 61.872C280.006 64.4428 280.438 67.0081 280.881 69.7349C279.874 69.5616 279.138 69.4338 278.401 69.307C278.484 69.5196 278.568 69.7322 278.652 69.9438C277.777 70.3844 276.902 70.8242 276 71.2785C276.615 71.5084 277.172 71.7164 277.773 71.9417C277.26 72.5812 276.846 73.0984 276.369 73.6932C277.237 73.8301 277.902 73.935 278.684 74.0582C278.165 75.1702 277.61 76.0971 277.294 77.0997C276.839 78.5411 276.205 80.0554 276.279 81.5069C276.424 84.3267 276.925 87.1383 277.431 89.9253C277.99 93.0106 278.72 96.0649 279.388 99.1922C280.498 98.7698 281.187 98.5071 281.878 98.2434C279.62 100.114 280.576 102.168 281.492 104.047C282.329 105.768 281.749 108.601 284.304 108.691C284.304 109.553 283.958 110.645 284.36 111.198C287.362 115.329 290.391 119.456 293.661 123.377C295.747 125.878 300.433 126.645 303.473 125.442C299.674 122.587 297.126 118.76 294.874 114.709C297.758 117.991 300.642 121.274 303.594 124.636C306.216 120.197 304.979 113.822 301.475 112.535Z" fill="black"/>
</g>
<path fill-rule="evenodd" clip-rule="evenodd" d="M199.224 232.267V224.896C201.945 225.092 203.107 226.069 203.223 228.133C203.354 230.479 202.209 231.708 199.224 232.267ZM199.169 243.613V237.989C201.406 237.967 202.601 238.931 202.629 240.693C202.657 242.447 201.479 243.502 199.169 243.613ZM213.805 229.527C214.285 223.345 210.86 218.745 204.569 217.844C199.14 217.067 193.585 217.248 188 217V250.924C193.549 250.924 198.947 251.137 204.322 250.85C208.085 250.65 211.628 249.289 213.26 245.267C214.715 241.679 213.937 238.363 211.69 235.956C212.532 233.495 213.649 231.552 213.805 229.527Z" fill="black"/>
<path fill-rule="evenodd" clip-rule="evenodd" d="M182.709 217H171.703C171.703 221.288 171.715 225.38 171.698 229.471C171.687 232.332 171.731 235.198 171.564 238.05C171.458 239.845 170.424 241.062 168.599 241.122C166.894 241.177 165.855 240.184 165.539 238.44C165.384 237.584 165.303 236.7 165.299 235.829C165.279 230.547 165.288 225.265 165.288 219.983V217.076H154.07C154.07 224.913 153.872 232.61 154.142 240.288C154.308 245.002 156.662 248.596 160.967 250.491C164.897 252.22 168.99 252.342 173.076 251.468C179.332 250.13 182.671 246.128 182.875 239.396C183.094 232.141 182.957 224.875 182.964 217.616C182.964 217.427 182.812 217.238 182.709 217Z" fill="black"/>
<path fill-rule="evenodd" clip-rule="evenodd" d="M116.314 228.261C118.521 228.229 120.738 228.824 123.299 229.216C124.693 226.583 126.357 223.439 128 220.337C121.867 215.179 111.194 216.14 105.085 222.252C98.5694 228.771 98.2729 239.983 104.441 246.648C109.938 252.589 121.298 253.84 127.329 249.106C126.187 245.768 125.036 242.404 123.879 239.022C118.214 241.731 115.751 241.658 113.344 238.769C111.372 236.403 111.29 232.645 113.358 230.251C114.121 229.367 115.306 228.276 116.314 228.261Z" fill="black"/>
<path fill-rule="evenodd" clip-rule="evenodd" d="M114 206C117.707 205.479 121.645 204.926 126.173 204.29C126.173 197.08 126.059 189.908 126.213 182.741C126.32 177.744 126.529 172.715 127.209 167.778C127.606 164.885 129.015 162.145 130 159.247C125.005 158.857 119.744 158.447 114 158V206Z" fill="black"/>
<path fill-rule="evenodd" clip-rule="evenodd" d="M142.995 217H132V251H151V242.023H142.995V217Z" fill="black"/>
<mask id="mask1" style="mask-type:alpha" maskUnits="userSpaceOnUse" x="0" y="0" width="305" height="252">
<path fill-rule="evenodd" clip-rule="evenodd" d="M0 252H305V0H0V252Z" fill="white"/>
</mask>
<g mask="url(#mask1)">
<path fill-rule="evenodd" clip-rule="evenodd" d="M221 238H271V233H221V238Z" fill="black"/>
<path fill-rule="evenodd" clip-rule="evenodd" d="M46 238H95V233H46V238Z" fill="black"/>
<path fill-rule="evenodd" clip-rule="evenodd" d="M184 13.1068C176.575 12.2398 173.234 16.7198 175.921 24C178.654 20.3143 181.289 16.7622 184 13.1068Z" fill="black"/>
<path fill-rule="evenodd" clip-rule="evenodd" d="M197.531 6.79327C198.1 6.30034 197.864 4.95357 198 4C197.065 4.11492 195.692 3.89268 195.266 4.4008C193.045 7.05445 191.065 9.89331 189 12.6676C189.175 12.7787 189.349 12.8889 189.525 13C192.214 10.9533 194.987 8.99483 197.531 6.79327Z" fill="black"/>
<path fill-rule="evenodd" clip-rule="evenodd" d="M192.057 16C195.038 15.7064 198.019 15.4228 200.998 15.1142C202.254 14.9845 203.264 14.4846 202.938 13.1389C202.585 11.6759 201.301 11.9021 200.25 12.2914C197.474 13.3185 194.746 14.4555 192 15.5484C192.019 15.6989 192.038 15.8495 192.057 16Z" fill="black"/>
<path fill-rule="evenodd" clip-rule="evenodd" d="M190 22.0171C193.772 23.1178 196.929 24.1062 200.144 24.9281C200.894 25.1203 201.939 24.9024 202.651 24.5652C202.982 24.4099 203.137 23.2568 202.848 23.0072C202.274 22.5121 201.345 22.0848 200.544 22.06C197.253 21.9579 193.954 22.0171 190 22.0171Z" fill="black"/>
<path fill-rule="evenodd" clip-rule="evenodd" d="M184.001 27.6436C185.372 27.0002 186.381 26.0008 185.861 24C182.808 24.4326 179.958 24.837 177 25.2566C179.193 27.6073 181.988 28.5886 184.001 27.6436Z" fill="black"/>
</g>
</svg>
