<svg width="505" height="470" viewBox="0 0 505 470" fill="none" xmlns="http://www.w3.org/2000/svg">
<path fill-rule="evenodd" clip-rule="evenodd" d="M306.782 123.544C307.595 123.99 308.409 124.44 309.223 124.891C304.768 129.812 301.137 136.085 295.682 139.358C285.696 145.344 277.172 139.255 268.555 134.319C281.951 130.544 294.364 127.042 306.782 123.544M100.872 118.797C109.241 115.033 118.909 114.137 127.989 111.935C128.792 113.292 129.596 114.639 130.394 115.991C94.9229 140.418 84.5241 178.917 71.4728 216.096C99.584 199.294 117.997 167.708 154.884 161.127C158.093 171.323 163.537 180.71 163.548 190.102C163.573 220.208 162.538 250.396 160.138 280.41C157.161 317.63 134.458 337.914 98.8372 345.56C96.5504 346.051 94.4645 347.47 92.2858 348.458C92.3785 349.344 92.4712 350.225 92.5588 351.111C111.863 352.36 131.161 353.605 149.925 354.819V427.829C169.713 414.611 189.423 401.445 210.983 387.04C212.374 415.088 213.718 442.203 215.093 470C259.094 462.4 262.513 420.075 281.704 389.15C285.062 406.945 288.261 423.926 291.459 440.908C292.149 441 292.839 441.092 293.529 441.179C298.829 425.698 304.129 410.212 309.65 394.076C324.381 407.273 338.524 419.947 351.972 432.002C349.752 418.432 347.115 402.357 344.097 383.931C361.819 395.367 377.796 405.68 393.778 415.989C384.507 401.824 373.547 389.503 365.023 375.702C360.104 367.744 356.427 357.272 356.834 348.131C358.302 315.151 361.855 282.269 364.297 249.326C364.626 244.881 363.627 240.139 362.303 235.812C358.575 223.562 354.351 211.461 350.324 199.299C356.35 205.075 358.801 212.409 363.143 218.375C371.27 229.528 379.485 240.999 389.596 250.248C397.857 257.811 409.157 255.645 415.322 247.979C422.085 239.581 423.589 230.788 415.513 222.19C409.497 215.778 403.873 208.865 397.131 203.298C368.561 179.691 351.07 149.784 343.736 113.742C342.629 108.299 340.836 102.993 339.286 97.6472C339.132 97.1095 338.483 96.71 337.607 95.737C336.845 98.4563 336.216 100.699 334.985 105.103C328.063 91.9526 321.867 80.4406 303.501 82.1408C309.135 63.5874 313.941 46.9237 319.271 30.4187C324.437 14.4156 319.848 8.00924 302.759 8.47525C299.978 8.55207 297.181 8.98223 294.436 9.49433C264.357 15.1069 234.104 18.6558 203.757 12.5055C188.017 9.31509 172.669 4.22994 157.145 0C156.579 0.450648 156.018 0.901296 155.446 1.35194C164.83 10.9487 174.214 20.5506 185.586 32.1855C143.723 35.5704 103.746 38.8018 62.7737 42.1151C82.6957 59.2909 109.396 59.7313 133.618 70.2396C69.2015 71.4635 37.109 118.111 0 162.945C17.4703 156.58 32.7878 151.976 47.2451 145.482C65.4468 137.309 82.6751 126.985 100.872 118.797" fill="black"/>
<path fill-rule="evenodd" clip-rule="evenodd" d="M399 74.6022C356.926 69.7151 337.995 94.966 353.218 136C368.706 115.226 383.637 95.2049 399 74.6022" fill="black"/>
<path fill-rule="evenodd" clip-rule="evenodd" d="M475.341 37.8285C478.566 35.0352 477.232 27.4035 478 22C472.7 22.6512 464.92 21.3918 462.509 24.2712C449.923 39.3086 438.7 55.3954 427 71.1163C427.993 71.746 428.98 72.3703 429.973 73C445.211 61.4018 460.927 50.304 475.341 37.8285" fill="black"/>
<path fill-rule="evenodd" clip-rule="evenodd" d="M443.32 89C460.122 87.3852 476.925 85.8253 493.717 84.1282C500.796 83.4146 506.485 80.6654 504.653 73.2639C502.659 65.2175 495.422 66.4617 489.5 68.6026C473.855 74.252 458.478 80.5053 443 86.5161C443.107 87.3441 443.213 88.172 443.32 89" fill="black"/>
<path fill-rule="evenodd" clip-rule="evenodd" d="M433 123.091C453.89 128.962 471.376 134.233 489.183 138.617C493.336 139.642 499.123 138.48 503.067 136.681C504.898 135.853 505.759 129.703 504.159 128.372C500.976 125.731 495.835 123.453 491.4 123.32C473.169 122.775 454.899 123.091 433 123.091" fill="black"/>
<path fill-rule="evenodd" clip-rule="evenodd" d="M399.673 156.04C407.44 152.501 413.159 147.005 410.213 136C392.912 138.38 376.761 140.604 360 142.911C372.426 155.84 388.265 161.237 399.673 156.04" fill="black"/>
</svg>
