<?xml version="1.0" encoding="utf-8"?>
<svg width="864px" height="661px" viewBox="0 0 864 661" version="1.1" xmlns:xlink="http://www.w3.org/1999/xlink" xmlns="http://www.w3.org/2000/svg">
  <defs>
    <filter id="filter_1">
      <feColorMatrix in="SourceGraphic" type="matrix" values="0 0 0 0 0 0 0 0 0 0 0 0 0 0 0 0 0 0 1 0" />
    </filter>
    <path d="M3.99931 0.000446119L12.8582 0.000138756Q13.0547 0.000131939 13.2502 0.0193831Q13.4458 0.0386343 13.6384 0.0769581Q13.8311 0.115282 14.0191 0.172309Q14.2072 0.229336 14.3887 0.304518Q14.5702 0.379699 14.7435 0.472311Q14.9167 0.564923 15.0801 0.674073Q15.2434 0.783222 15.3953 0.907859Q15.5472 1.0325 15.6861 1.17142Q15.825 1.31034 15.9497 1.46221Q16.0743 1.61409 16.1835 1.77744Q16.2926 1.9408 16.3852 2.11407Q16.4778 2.28734 16.553 2.46885Q16.6282 2.65037 16.6852 2.83837Q16.7422 3.02638 16.7806 3.21907Q16.8189 3.41177 16.8381 3.60729Q16.8574 3.80281 16.8574 3.99928L16.8571 12.8582Q16.8571 13.0547 16.8378 13.2502Q16.8185 13.4457 16.7802 13.6383Q16.7419 13.831 16.6849 14.019Q16.6278 14.207 16.5526 14.3885Q16.4775 14.57 16.3849 14.7432Q16.2922 14.9165 16.1831 15.0798Q16.074 15.2432 15.9493 15.395Q15.8247 15.5469 15.6858 15.6858Q15.5469 15.8247 15.395 15.9493Q15.2432 16.074 15.0798 16.1831Q14.9165 16.2922 14.7432 16.3849Q14.57 16.4775 14.3885 16.5526Q14.207 16.6278 14.019 16.6849Q13.831 16.7419 13.6383 16.7802Q13.4457 16.8185 13.2502 16.8378Q13.0547 16.8571 12.8582 16.8571L3.99928 16.8574Q3.80281 16.8574 3.60729 16.8381Q3.41177 16.8189 3.21907 16.7806Q3.02638 16.7422 2.83837 16.6852Q2.65036 16.6282 2.46885 16.553Q2.28734 16.4778 2.11407 16.3852Q1.9408 16.2926 1.77744 16.1834Q1.61408 16.0743 1.46221 15.9497Q1.31034 15.825 1.17142 15.6861Q1.0325 15.5472 0.907859 15.3953Q0.783222 15.2434 0.674073 15.0801Q0.564923 14.9167 0.472311 14.7435Q0.379699 14.5702 0.304518 14.3887Q0.229336 14.2072 0.172309 14.0191Q0.115282 13.8311 0.0769581 13.6384Q0.0386343 13.4458 0.0193831 13.2502Q0.000131939 13.0547 0.000138756 12.8582L0.000446119 3.99931Q0.000452935 3.80286 0.0197143 3.60736Q0.0389757 3.41185 0.0773061 3.21918Q0.115637 3.0265 0.172667 2.83852Q0.229697 2.65053 0.304878 2.46903Q0.38006 2.28754 0.472668 2.11428Q0.565276 1.94103 0.674418 1.77769Q0.783561 1.61435 0.908188 1.46249Q1.03282 1.31064 1.17173 1.17173Q1.31064 1.03282 1.46249 0.908188Q1.61435 0.783561 1.77769 0.674418Q1.94103 0.565275 2.11429 0.472668Q2.28754 0.38006 2.46903 0.304878Q2.65053 0.229697 2.83852 0.172667Q3.0265 0.115637 3.21918 0.0773061Q3.41185 0.0389757 3.60736 0.0197143Q3.80286 0.000452935 3.99931 0.000446119L3.99931 0.000446119Z" transform="matrix(0.70710677 -0.70710677 0.70710677 0.70710677 507.93774 645.1825)" id="path_1" />
    <path d="M3.99931 0.000446119L12.8582 0.000138756Q13.0547 0.000131939 13.2502 0.0193831Q13.4458 0.0386343 13.6384 0.0769581Q13.8311 0.115282 14.0191 0.172309Q14.2072 0.229336 14.3887 0.304518Q14.5702 0.379699 14.7435 0.472311Q14.9167 0.564923 15.0801 0.674073Q15.2434 0.783222 15.3953 0.907859Q15.5472 1.0325 15.6861 1.17142Q15.825 1.31034 15.9497 1.46221Q16.0743 1.61409 16.1835 1.77744Q16.2926 1.9408 16.3852 2.11407Q16.4778 2.28734 16.553 2.46885Q16.6282 2.65037 16.6852 2.83837Q16.7422 3.02638 16.7806 3.21907Q16.8189 3.41177 16.8381 3.60729Q16.8574 3.80281 16.8574 3.99928L16.8571 12.8582Q16.8571 13.0547 16.8378 13.2502Q16.8185 13.4457 16.7802 13.6383Q16.7419 13.831 16.6849 14.019Q16.6278 14.207 16.5526 14.3885Q16.4775 14.57 16.3849 14.7432Q16.2922 14.9165 16.1831 15.0798Q16.074 15.2432 15.9493 15.395Q15.8247 15.5469 15.6858 15.6858Q15.5469 15.8247 15.395 15.9493Q15.2432 16.074 15.0798 16.1831Q14.9165 16.2922 14.7432 16.3849Q14.57 16.4775 14.3885 16.5526Q14.207 16.6278 14.019 16.6849Q13.831 16.7419 13.6383 16.7802Q13.4457 16.8185 13.2502 16.8378Q13.0547 16.8571 12.8582 16.8571L3.99928 16.8574Q3.80281 16.8574 3.60729 16.8381Q3.41177 16.8189 3.21907 16.7806Q3.02638 16.7422 2.83837 16.6852Q2.65036 16.6282 2.46885 16.553Q2.28734 16.4778 2.11407 16.3852Q1.9408 16.2926 1.77744 16.1834Q1.61408 16.0743 1.46221 15.9497Q1.31034 15.825 1.17142 15.6861Q1.0325 15.5472 0.907859 15.3953Q0.783222 15.2434 0.674073 15.0801Q0.564923 14.9167 0.472311 14.7435Q0.379699 14.5702 0.304518 14.3887Q0.229336 14.2072 0.172309 14.0191Q0.115282 13.8311 0.0769581 13.6384Q0.0386343 13.4458 0.0193831 13.2502Q0.000131939 13.0547 0.000138756 12.8582L0.000446119 3.99931Q0.000452935 3.80286 0.0197143 3.60736Q0.0389757 3.41185 0.0773061 3.21918Q0.115637 3.0265 0.172667 2.83852Q0.229697 2.65053 0.304878 2.46903Q0.38006 2.28754 0.472668 2.11428Q0.565276 1.94103 0.674418 1.77769Q0.783561 1.61435 0.908188 1.46249Q1.03282 1.31064 1.17173 1.17173Q1.31064 1.03282 1.46249 0.908188Q1.61435 0.783561 1.77769 0.674418Q1.94103 0.565275 2.11429 0.472668Q2.28754 0.38006 2.46903 0.304878Q2.65053 0.229697 2.83852 0.172667Q3.0265 0.115637 3.21918 0.0773061Q3.41185 0.0389757 3.60736 0.0197143Q3.80286 0.000452935 3.99931 0.000446119L3.99931 0.000446119Z" transform="matrix(0.70710677 -0.70710677 0.70710677 0.70710677 738.30786 81.017334)" id="path_2" />
    <clipPath id="clip_1">
      <use xlink:href="#path_1" />
    </clipPath>
    <clipPath id="clip_2">
      <use xlink:href="#path_2" />
    </clipPath>
  </defs>
  <g id="Shape" transform="translate(1.4744873 1.4744873)" filter="url(#filter_1)">
    <g id="Rectangle">
      <g clip-path="url(#clip_1)">
        <use xlink:href="#path_1" fill="none" stroke="#80F3DA" stroke-width="4" />
      </g>
    </g>
    <g id="Rectangle">
      <g clip-path="url(#clip_2)">
        <use xlink:href="#path_2" fill="none" stroke="#FFA7A7" stroke-width="4" />
      </g>
    </g>
    <path d="M0.000513062 3.62198L0.00012568 14.7872Q0.000123368 14.8539 0.00456058 14.9204Q0.00899779 14.9869 0.0178548 15.053Q0.0267118 15.119 0.0399493 15.1843Q0.0531868 15.2497 0.070746 15.314Q0.0883052 15.3783 0.110108 15.4412Q0.131911 15.5042 0.157861 15.5656Q0.18381 15.627 0.213792 15.6865Q0.243773 15.7461 0.277653 15.8034Q0.311532 15.8608 0.34916 15.9159Q0.386787 15.9709 0.427996 16.0233Q0.469204 16.0756 0.51381 16.1252Q0.558416 16.1747 0.606222 16.2211Q0.654028 16.2676 0.704821 16.3107Q0.755614 16.3539 0.809169 16.3936Q0.862724 16.4332 0.918802 16.4692Q0.974881 16.5053 1.03323 16.5375Q1.09159 16.5697 1.15196 16.5979Q1.21232 16.6262 1.27444 16.6503Q1.33656 16.6745 1.40014 16.6945Q1.46373 16.7144 1.52851 16.7301Q1.59329 16.7458 1.65896 16.7572Q1.72464 16.7685 1.79093 16.7754Q1.85722 16.7824 1.92382 16.7849Q1.99042 16.7874 2.05704 16.7855Q2.12367 16.7835 2.19001 16.7772Q2.25636 16.7708 2.32213 16.76Q2.38791 16.7493 2.45282 16.7341Q2.51773 16.719 2.58149 16.6996Q2.64525 16.6802 2.70757 16.6566Q2.76989 16.6329 2.83051 16.6052Q2.89112 16.5775 2.94975 16.5458Q3.00838 16.5141 3.06477 16.4786L11.9254 10.8956Q11.9787 10.862 12.0298 10.8252Q12.0809 10.7883 12.1296 10.7482Q12.1783 10.7082 12.2243 10.6652Q12.2704 10.6222 12.3136 10.5763Q12.3569 10.5305 12.3972 10.482Q12.4374 10.4335 12.4746 10.3826Q12.5117 10.3317 12.5456 10.2786Q12.5795 10.2254 12.6099 10.1702Q12.6404 10.115 12.6673 10.0581Q12.6942 10.0011 12.7175 9.9425Q12.7407 9.88392 12.7603 9.824Q12.7798 9.76408 12.7955 9.70305Q12.8113 9.64202 12.8231 9.58012Q12.8349 9.51822 12.8429 9.45569Q12.8508 9.39317 12.8548 9.33027Q12.8587 9.26737 12.8587 9.20434Q12.8587 9.14132 12.8548 9.07842Q12.8508 9.01552 12.8429 8.953Q12.8349 8.89047 12.8231 8.82857Q12.8112 8.76667 12.7955 8.70564Q12.7798 8.64461 12.7603 8.58469Q12.7407 8.52477 12.7174 8.4662Q12.6942 8.40763 12.6673 8.35064Q12.6403 8.29365 12.6099 8.23847Q12.5794 8.1833 12.5456 8.13014Q12.5117 8.07699 12.4746 8.02608Q12.4374 7.97517 12.3971 7.9267Q12.3568 7.87823 12.3136 7.83239Q12.2703 7.78655 12.2243 7.74353Q12.1782 7.70051 12.1295 7.66048Q12.0809 7.62044 12.0298 7.58355Q11.9787 7.54667 11.9253 7.51307L3.06511 1.93075Q3.00872 1.89522 2.95009 1.86353Q2.89146 1.83184 2.83085 1.80412Q2.77024 1.7764 2.70792 1.75278Q2.6456 1.72917 2.58184 1.70975Q2.51808 1.69034 2.45318 1.67521Q2.38827 1.66009 2.3225 1.64932Q2.25673 1.63855 2.19038 1.63218Q2.12404 1.62582 2.05742 1.62389Q1.9908 1.62196 1.9242 1.62447Q1.8576 1.62698 1.79132 1.63392Q1.72503 1.64086 1.65936 1.6522Q1.59368 1.66355 1.52891 1.67924Q1.46414 1.69493 1.40055 1.71489Q1.33697 1.73486 1.27485 1.75902Q1.21274 1.78319 1.15237 1.81143Q1.09201 1.83967 1.03366 1.87187Q0.975305 1.90408 0.919228 1.94009Q0.863151 1.97611 0.809598 2.01578Q0.756045 2.05545 0.705253 2.0986Q0.654461 2.14176 0.606656 2.18819Q0.558851 2.23463 0.514245 2.28415Q0.469639 2.33367 0.42843 2.38605Q0.387222 2.43843 0.349594 2.49344Q0.311966 2.54845 0.278085 2.60584Q0.244204 2.66323 0.214222 2.72275Q0.184239 2.78228 0.158287 2.84366Q0.132336 2.90505 0.110531 2.96803Q0.0887254 3.03101 0.0711634 3.0953Q0.0536014 3.15959 0.0403606 3.22491Q0.0271198 3.29023 0.018259 3.35628Q0.00939819 3.42234 0.00495678 3.48884Q0.000515374 3.55534 0.000513062 3.62198Z" transform="matrix(0.70710677 -0.70710677 0.70710677 0.70710677 0 147.98242)" id="Path-6" fill="none" stroke="#DC8CFF" stroke-width="2" stroke-linecap="round" stroke-linejoin="round" />
    <path d="M7.5 15C11.6421 15 15 11.6421 15 7.5C15 3.35786 11.6421 0 7.5 0C3.35786 0 0 3.35786 0 7.5C0 11.6421 3.35786 15 7.5 15Z" transform="translate(334.05896 0)" id="Oval" fill="none" stroke="#E7E7E7" stroke-width="2" />
    <g id="+" fill="#E0E0E0" transform="matrix(-0.6946583 0.7193399 -0.7193399 -0.6946583 860.65173 570.1656)">
      <path d="M10.526 35.376Q9.918 35.376 9.652 35.186Q9.386 34.996 9.386 34.616L9.386 27.814L2.66 27.814Q2.28 27.814 2.09 27.548Q1.9 27.282 1.9 26.674L1.9 26.408Q1.9 25.8 2.09 25.534Q2.28 25.268 2.66 25.268L9.386 25.268L9.386 18.466Q9.386 18.048 9.652 17.877Q9.918 17.706 10.526 17.706L10.792 17.706Q11.4 17.706 11.666 17.896Q11.932 18.086 11.932 18.466L11.932 25.268L18.62 25.268Q19.038 25.268 19.209 25.534Q19.38 25.8 19.38 26.408L19.38 26.674Q19.38 27.282 19.209 27.548Q19.038 27.814 18.62 27.814L11.932 27.814L11.932 34.616Q11.932 34.996 11.666 35.186Q11.4 35.376 10.792 35.376L10.526 35.376Z" />
    </g>
    <path d="M5 10C2.23833 10 0 7.76125 0 5C0 2.23875 2.23833 0 5 0C7.76125 0 10 2.23875 10 5C10 7.76125 7.76125 10 5 10Z" transform="translate(203.05896 540.99994)" id="Stroke-30" fill="none" fill-rule="evenodd" stroke="#DEE5EE" stroke-width="2" stroke-linecap="round" stroke-linejoin="round" />
    <path d="M3.4 16.8935L14.7333 0.894737M0 2.26667L17 14.7333" transform="translate(134.05896 261)" id="Combined-Shape" fill="none" fill-rule="evenodd" stroke="#EAEAEA" stroke-width="2.949" stroke-linecap="round" stroke-linejoin="round" />
  </g>
</svg>
