<svg width="1920" height="840" viewBox="0 0 1920 840" fill="none" xmlns="http://www.w3.org/2000/svg">
<g opacity="0.172171">
<path d="M-258 -104.695C-258 -104.695 -192.628 -238.055 -54.4297 -158.607C83.7688 -79.1583 162.33 -74.0509 335.508 -170.524C508.686 -266.997 605.023 -100.723 560.869 40.5818C516.714 181.886 689.534 277.458 829.684 137.328C831.259 135.753 832.831 134.149 834.398 132.515C975.464 -14.4646 1053.45 -113.208 1271.36 -40.5691C1489.26 32.0694 1545.46 -83.1308 1577 -246" stroke="#E0F3E8"/>
<path d="M1957.47 260.995C1714.92 639.707 1382.54 767 1222.81 767C1063.09 767 877.02 694.236 870.138 447.52C863.256 200.803 1115.6 32.536 1316.33 116.67C1517.06 200.803 1714.92 -32.2697 1714.92 -32.2697H1946.23C1946.23 -32.2697 2200.02 -117.718 1957.47 260.995Z" stroke="#E0F3E8"/>
<path d="M770.376 579.927C770.376 579.927 773.208 740.708 916.284 836.771" stroke="#E0F3E8"/>
</g>
</svg>
