<svg xmlns="http://www.w3.org/2000/svg" width="102" height="167" viewBox="0 0 102 167">
  <path id="Fill_1" data-name="Fill 1" d="M97.315,122.473l-4.3-.946c.743-1.884,1.3-3.3,1.917-4.874H88.688c6.218-12.1,1.209-22.62-3.317-33.149C81.7,74.961,77.787,66.517,73.986,58.037c-3.2,1.491-5.293,2.467-7.386,3.443,3.125-5.874,3.756-11.091-.817-16.022-3.523-3.8-3.45-11-9.335-11.283-1.147-2.585-1.533-5.149-3.016-6.516C44.994,19.877,36.234,12.454,27.7,4.773,19.1-2.973,8.916-.1,0,4.977v9.674a23.014,23.014,0,0,0,1.846,3.469C5.251,22.551,3.376,29.99,11.378,32.3c2.872.825,3.588,7.853,6.115,11.47C22.745,51.288,29.225,58,33.943,65.816,39.15,74.431,44.3,82.432,54.83,84.916c.245.056.345.731.46,1-2.683.713-5.375,1.426-8.536,2.266,3.441,6.539,6.325,12.289,9.444,17.9,4.614,8.3,7.56,17.9,17.8,21.789,1.837.7,2.8,3.706,4.2,5.685,3.68-2.224,6.2-1.881,7.8,3.268,2.509,8.1,5.593,16.031,8.733,23.916.917,2.3,2.854,4.188,4.325,6.264q1.473-.807,2.948-1.609c-4.768-11.916-9.538-23.83-13.84-34.581,3.444-3.135,6.068-5.525,9.155-8.338"/>
</svg>
