<svg width="35" height="35" viewBox="0 0 35 35" fill="none" xmlns="http://www.w3.org/2000/svg">
<path fill-rule="evenodd" clip-rule="evenodd" d="M3.1681 27.5408C-2.03878 20.1088 -0.700705 9.92959 6.25001 4.09569C13.2007 -1.73821 23.4577 -1.29105 29.8744 5.1256C36.2911 11.5423 36.7382 21.7993 30.9043 28.75C25.0704 35.7007 14.8912 37.0388 7.45918 31.8319L1.94214 33.0579L3.1681 27.5408Z" fill="#F98A00"/>
<path d="M13 13.3757C13.4776 11.3348 15.3526 9.91977 17.464 10.0066C19.8271 9.87689 21.8529 11.6621 22 14.004C22 17.0098 17.6656 18.0013 17.6656 20" stroke="black" stroke-width="3" stroke-linecap="round" stroke-linejoin="round"/>
<path d="M18.25 25.0003C18.2498 25.1383 18.1379 25.2501 17.9999 25.25C17.8619 25.2499 17.7501 25.1381 17.75 25.0001C17.7499 24.8621 17.8617 24.7502 17.9997 24.75C18.0661 24.7499 18.1298 24.7763 18.1768 24.8232C18.2237 24.8702 18.2501 24.9339 18.25 25.0003" stroke="black" stroke-width="3" stroke-linecap="round" stroke-linejoin="round"/>
</svg>
