<svg width="1920" height="283" viewBox="0 0 1920 283" fill="none" xmlns="http://www.w3.org/2000/svg">
<g id="Group">
<path id="Fill 1" fill-rule="evenodd" clip-rule="evenodd" d="M1531.98 85.2418L1497.95 57.1902L1425.32 117.22L1319.3 61.6703L1265.09 132.153L1171.13 99.9452L1029.64 175.434L899.894 92.6283L829.723 127.014L780.061 102.425L699.817 190.571L667.065 177.814L641.679 182.293L573.086 138.125L390.038 186.343L288.887 105.507L285.86 178.49L173.553 151.259L-78 154.371L-77.5396 247H1932V158.251L1820.33 151.259L1726.19 118.784L1641.74 122.961L1739.53 0L1531.98 85.2418Z" fill="#FABF00"/>
<path id="Fill 1_2" fill-rule="evenodd" clip-rule="evenodd" d="M1451.12 107L1320.91 167.463L1159.97 159.155L1047.98 211.006L816.236 162.294L683.635 195.001L627.683 213.399L561.59 178.001L457.779 219.766L292.176 195.001L185.787 214.08L55.6004 186.685L-236 189.816L-235.466 283H2094V193.718L1979.24 150.853L1885.86 173.825L1757.53 158.218L1630.29 120.271L1538.32 164.414L1451.12 107Z" fill="black"/>
</g>
</svg>
