<?xml version="1.0" encoding="utf-8"?>
<svg width="50px" height="36px" viewBox="0 0 50 36" version="1.1" xmlns:xlink="http://www.w3.org/1999/xlink" xmlns="http://www.w3.org/2000/svg">
  <defs>
    <path d="M0 0L50 0L50 36L0 36L0 0Z" id="path_1" />
    <clipPath id="mask_1">
      <use xlink:href="#path_1" />
    </clipPath>
  </defs>
  <g id="Group-3">
    <path d="M0 0L50 0L50 36L0 36L0 0Z" id="Clip-2" fill="none" fill-rule="evenodd" stroke="none" />
    <g clip-path="url(#mask_1)">
      <path d="M32.6199 25.5C30.2226 25.5 28.2534 23.3574 28.2534 20.743C28.2534 18.1288 30.1798 15.9859 32.6199 15.9859C35.0599 15.9859 36.9863 18.1288 36.9863 20.743C36.9863 23.3574 35.0599 25.5 32.6199 25.5M16.9949 25.5C14.5976 25.5 12.6284 23.3574 12.6284 20.743C12.6284 18.1288 14.5548 15.9859 16.9949 15.9859C19.4349 15.9859 21.4041 18.1288 21.3613 20.743C21.3613 23.3574 19.4349 25.5 16.9949 25.5M43.8356 4.50062C37.6712 -0.127859 31.8065 0.000709445 31.8065 0.000709445L31.2072 0.686243C38.4846 2.91477 41.8664 6.12916 41.8664 6.12916C31.6976 0.549471 19.7526 0.548634 9.8887 4.88616C8.3048 5.61472 7.36301 6.12916 7.36301 6.12916C7.36301 6.12916 10.9161 2.74335 18.6216 0.514818L18.1935 0.000709445C18.1935 0.000709445 12.3288 -0.127859 6.16438 4.50062C6.16438 4.50062 0 15.6859 0 29.4858C0 29.4858 3.59589 35.7 13.0565 36C13.0565 36 14.6404 34.0713 15.9247 32.4429C10.488 30.8142 8.43322 27.3859 8.43322 27.3859C9.06297 27.827 10.1014 28.399 10.1884 28.4571C17.4139 32.508 27.6775 33.8353 36.9007 29.9571C38.399 29.4001 40.0685 28.5859 41.8236 27.4287C41.8236 27.4287 39.6832 30.943 34.0753 32.5285C35.3596 34.1572 36.9007 36 36.9007 36C46.3613 35.7 50 29.4858 50 29.4858C50 15.6859 43.8356 4.50062 43.8356 4.50062" transform="matrix(1 0 0 1 0 7.81597E-14)" id="Fill-1" fill="#FFFFFF" fill-rule="evenodd" stroke="none" />
    </g>
  </g>
</svg>