<svg id="icons8-twitter" xmlns="http://www.w3.org/2000/svg" width="44" height="36" viewBox="0 0 44 36">
  <path id="Path" d="M44,4.261a18.036,18.036,0,0,1-5.185,1.434A9.129,9.129,0,0,0,42.784.663a18,18,0,0,1-5.736,2.2A9.02,9.02,0,0,0,21.432,9.09a9.133,9.133,0,0,0,.235,2.07,25.575,25.575,0,0,1-18.6-9.5A9.146,9.146,0,0,0,5.857,13.8a8.9,8.9,0,0,1-4.09-1.136v.115a9.083,9.083,0,0,0,7.24,8.914,8.89,8.89,0,0,1-2.378.318,8.777,8.777,0,0,1-1.7-.162,9.039,9.039,0,0,0,8.429,6.31,17.988,17.988,0,0,1-11.21,3.889A18.728,18.728,0,0,1,0,31.922,25.419,25.419,0,0,0,13.836,36c16.6,0,25.684-13.851,25.684-25.855,0-.4-.007-.791-.027-1.184A18.126,18.126,0,0,0,44,4.261" fill="#fff"/>
</svg>
